<svg id="Слой_4" data-name="Слой 4" xmlns="http://www.w3.org/2000/svg" viewBox="0 0 2000 2000"><path d="M322.19,1193.61c-30.87,4.52-58.58,22.78-88.37,32.13-48.52,15.23-84.65,12-123.57-19.13,42.27-6.15,80.64,14.94,124.37-16.31,33.28-23.78,46.51-50.86,90.24-60.54,21.71-4.8,48.91-6.59,71.54-3.07,43.28,6.73,97.55,55.33,143.07,61.47-6.5-30.73-53.29-59.91-71.93-75.09-22.73-18.49-32.23-40.18-48.14-63.5-32.82-48.09-54-55.87-111.58-60.78-18.59-1.59-50.86-1.78-67.5-9.64-26-12.3-24.4-30.44-24.33-67.6,0-13.92.25-48.19,8.07-61.5,16.26-27.67,16.13,33.42,16.26,49.18.7,84.52,32.12,58.47,97.55,46.1,32.51-6.14,109.43,15.29,139.29,60.83,53.52,81.6,134.27,150,240.24,109.6,60.8-23.17,107.28-68.77,99.16-133.38-3.39-26.94-27.65-47.4-29.43-74.64-2.26-34.64,6-39.25,26.16-71.53l-.68,1.54c3.25-30.74-3.26-76.85-6.51-107.58A296.49,296.49,0,0,0,789.45,658c-16-43.25-32.16-91.47-40.28-136.14-12-65.75-19.32-138.66,3.07-202.47C781.93,234.76,846,176.85,942.35,165c34.73-4.27,78.48-1.3,109.82,13.11,60.48,27.81,88.44,70.81,109.66,126.34,30.76,80.49,18.59,160.93-2.54,242.31-9.46,36.46-13.88,73.34-29.07,109.4-18.09,42.94-43.85,81.78-58.81,126.38-6.21,18.51-13.91,32.17-7.63,51.67,7.31,22.66,33.27,36.46,36.68,61.12,4.63,33.57-32.33,59.63-31,93,3.9,96.39,198.27,154.51,237.36,58.4,17.44-42.85,14.51-95.8,60.21-119.62,29.86-15.57,69.69-10.34,102-5.24,38.48,6.07,73.6,14.1,110.88,26.5,19.49,6.48,72.45,35.93,87.8,52.25,26,27.67-40.62,4.21-61.76-4.47-43.89-18-77.83-28.82-126.84-29.34-54.08-.57-85.46-10.69-87.34,48.91-1.08,34.27,4.2,79.78-10.21,110.93-11.37,24.58-37.23,37.53-66.32,43.53-57.24,11.8-58.85,2.6-50.74,17.94,16.26,30.74,97.13,32.47,117.06,24.6,48.53-19.17,71.35-98,94.3-138.33,52.62-92.37,143.07-46.1,230.87,12.3,19.34,12.87,110.55,52.25,122,67.84,16.27,22.2-81.56-4.06-96.13-9.5-79.51-29.71-205.34-102.25-224.89,21-7.12,44.92-15.57,71.31-48.09,108.19-20.3,23-61.78,36.89-104,36.89-11.28,0-79.88-17.32-104.05-24.59-71.54-21.52-2.91,53.86,17.29,84.76,32.26,49.36,83.27,75.53,144.82,78.53,105.49,5.15,195.08-1.38,280.11-58.78,39.89-26.94,64.15-86.29,116-77.57,39.24,6.6,84.69,38.27,126.5,27,59.45-16.08,36.65-76.65-10.67-90.67,33.76-30.88,74.66,40.73,66.31,70.51-13.7,48.85-79.19,49.5-121.85,49.79-49.35.34-75.24-14.83-101.46,33.12-27.32,49.93-48,72.32-100.8,98.51-44,21.84-87.8,49.18-146.33,55.33-50.68,5.33-112.92,11.52-162.58,0-44.48-10.31-99.83-44.09-135.68-71.42-18.26-13.92-78.57-112-102.09-102.06-13.54,5.71-17.93,84.19-20,98.65-6.27,43.42,4.34,82.14,36.68,111.72,37.54,34.33,59.52,43.33,110.56,58.4,47.57,14,71.53,21.52,91,62.84,24.18,51.47,18.37,72.44,81.38,72.41,23.5,0,136.57,12.29,110.56,24.59-25,11.82-113.6,23.73-139.82,24.59-48.8,1.59-100.8-76.85-126.82-86.07-23.18-8.22-81.37-6.88-126-27.3C1094.09,1703,1035.4,1654,1004.45,1618.5c-67.09-76.88-82.6-174.29-48.18-271.72-29.86-23.37-100.29,96.35-105.4,128.79-7,44.76-22.94,124.35.11,163.65,34.21,58.28,111.09,89.45,172.89,113.5,20.85,8.11,121.15,44.64,108.46-4.08,36.47,15.64,25.44,42.57-3.95,53.64-45.76,17.23-109.72,12.59-157.94,8.65-87.87-7.18-141-35.08-196.79-95.64C690,1624.47,713.81,1506,706.52,1393.42c-24,.69-89.11,50.56-124.78,68.31-33.54,16.7-76,33.91-113.81,36.89-78,6.15-152.82-15.37-214.6-61.48-27.11-20.23-54.41-53.73-78-76.84-15.49-15.15-34.07-67.41-54.56-75C72,1267.1,55,1384.89,6.2,1378.74c-3.3-13.92,34.94-34.92,42.27-52.25,13-30.74,16.22-46,35.77-61.48,25.12-19.86,62.44-12,100.8,21.52,60.21,52.57,93.17,100.12,182.09,113.73,62.18,9.51,195.1-52.26,220.35-89.94-29.49-27.68-74-23.13-109.79-42.24-22.57-12-35.77-36.88-81.29-67.62C396.4,1200.46,345.17,1190.24,322.19,1193.61Z" style="fill:#ff9100"/><path d="M321.79,1192.16c-37.8,6.15-70.21,29.1-107.57,37.31-38.05,8.36-72.32,0-102.91-23.92l-1.06,2.56c29.65-3.87,59.56,5.13,89-.68,30.05-5.92,50.75-27.78,72.67-47.33,25.93-23.14,55.6-32.16,90.09-33.58,16.63-.68,33.55.23,49.44,5.53,14.09,4.7,27.36,11.75,40.36,18.86,27.52,15,55.6,33.93,87.22,38.7a1.52,1.52,0,0,0,1.85-1.84c-5.91-24.42-28.63-42.29-47.53-56.91-9.55-7.4-19.7-14.17-28.73-22.21-13-11.58-22.53-26-31.68-40.67-13.38-21.46-27.56-44.41-48.38-59.53-17.48-12.7-38.68-17-59.75-19.47-14.26-1.68-28.57-2.34-42.89-3.42s-30-2.13-43-8.78c-25.38-12.91-21.53-42.64-21.41-66.86.07-13.57.31-27.28,2.44-40.71.71-4.44,6.83-31,13.77-22.43,5.13,6.3,4.16,20.9,4.56,28.49.44,8.49.45,17,.57,25.5.24,16.4-.21,40.52,12.71,53.07,9.27,9,23.41,7,34.94,4.81,20.42-4,40.93-12.32,61.85-12.82,24.69-.6,50.25,7,72.45,17.33a158.32,158.32,0,0,1,35.61,22.22c11,9.28,18.56,20.56,26.71,32.25,16.32,23.42,34.89,45.5,56.57,64.15,41.64,35.85,94.25,55.31,149.17,44,50.16-10.38,105-41.94,123.62-92.14,9-24.17,9.28-51.8-2.26-75.08-7-14-16.86-27.14-20.34-42.63-3.09-13.75-2.68-30.22,2.92-43.28,5.44-12.71,14.46-24,21.8-35.63L812,835.46l-.69,1.53,2.8.76c2.61-27.29-.65-55-3.66-82.13-3.3-29.67-6.6-59-15.89-87.5-10.24-31.47-22.41-62.15-31.47-94a657.81,657.81,0,0,1-19.49-97.34c-8-63-6.22-127.43,21.94-185.54,21.17-43.68,55-80.12,98.66-101.85,49.91-24.84,112-32.18,165.92-17.49,51.46,14,92,52.67,115.59,99.43,30.18,59.68,38.24,124.6,29.48,190.51-4.53,34.11-13.55,67-21.19,100.48-7.72,33.83-13.83,67.77-27.92,99.71-13,29.43-29.31,57.22-42.64,86.48-6.27,13.74-11.3,27.85-16.44,42-4.34,12-8.58,24.11-6.4,37.06,4.19,24.86,28.72,37.69,36.59,60.61,9,26.32-12.14,49.59-22.48,71.92-14.86,32.08-1,65.27,22.81,88.73,24.83,24.45,58.88,39.85,92.94,45.94,30.83,5.51,66.27,4,92.49-15,33.32-24.17,33.46-68.8,46.54-104.34,9.82-26.66,28.41-46.71,56.64-53.71,29.9-7.41,62-1.83,91.83,3.2a679.5,679.5,0,0,1,96.24,23.22c20.65,6.67,40,17.54,58.45,28.78,9.58,5.83,19.2,11.93,27.83,19.11,3.54,2.95,16.47,13.36,8.7,16.12-6,2.14-16.67-2-22.47-3.54-8.77-2.37-17.42-5.25-26-8.34-22.82-8.23-44.87-18.2-68.31-24.72-27.16-7.55-54.27-9.58-82.33-10.33-29.25-.78-68.41-7.35-77.21,29.14-12,49.76,16.11,120-32.78,156-22.56,16.62-52.48,20.89-79.6,24.28-4.21.53-19.87-.52-21,5.72-.43,2.43,2.41,6.29,3.49,8.17a40,40,0,0,0,13.73,14.07c15.15,9.6,34.16,13,51.72,14.72,16,1.57,33.58,2.34,49.29-1.7,17.45-4.48,31.71-18.6,42.36-32.42,27.75-36,38.3-81.37,63.73-118.54,66.31-96.91,179.47,3.16,250.56,38.68,18.38,9.19,36.91,18.1,55.09,27.7,8,4.22,15.94,8.52,23.6,13.3,4.66,2.92,11.65,6.41,14.54,11.35,3.55,6.06-3.59,6.19-8.26,6.26-7.67.11-15.43-1.15-23-2.45a477,477,0,0,1-49.09-11.37c-32.58-9.18-63-25-94.86-36.49-30.66-11.08-68.53-23.58-100.89-12.19-40.07,14.11-42.18,57.6-50.25,92.9a172.9,172.9,0,0,1-34.06,70.64c-18.69,23.36-42.68,36.33-71.87,42.57-22.32,4.77-42,4.72-63.9-.08-20.85-4.58-41.58-9.82-62.18-15.4-12.6-3.41-32-13.15-45-7.64-8.9,3.77-5.91,14.18-3,21.11,6.77,15.92,18.11,30.09,28.35,43.88,11.25,15.15,21.34,31.55,33.88,45.67,33.24,37.43,80.87,55.68,130.12,58.32,57.39,3.08,116.14,2.65,172.27-11,49.56-12.09,100.14-34.56,135.69-72,15.4-16.21,29.75-35.08,49.5-46.29,24.53-13.93,50-5.41,74.64,3.66,25.37,9.33,52.27,21.2,79.94,18.21,17.24-1.87,37.13-9.9,44.67-26.73,13.71-30.62-17.8-60.5-44.41-68.85l.66,2.51c35.57-30.73,73.25,44.3,62.32,73.63-16.64,44.63-78.67,44-117.88,44.1-20,.08-40.91-4.16-60.84-1.23-18.7,2.74-31.36,15.37-40.69,31.12-12.71,21.46-24.32,43.1-42.06,61s-39.48,30.43-61.82,41.62c-25.76,12.9-51,27-77.81,37.61-30.07,11.83-60.6,16.46-92.6,19.49-31.68,3-63.65,5.15-95.46,3.07a240.48,240.48,0,0,1-89.12-23.47,493,493,0,0,1-76.38-45.79c-13.22-9.54-22.54-20.53-32.5-33.36-12.18-15.68-24.09-31.61-37.13-46.6-9.15-10.52-20.07-24.12-33.54-29.28-9.46-3.63-14.6,1.1-18,9.79-6.31,16.35-7.83,35-9.77,52.26-4.63,41.23-11.77,83.82,10.12,121.67,23.72,41,69.67,66.79,113.37,80.86,24,7.72,49.76,12.81,72.08,24.84,20.89,11.26,32.9,29.81,42.3,51,6.85,15.44,11.61,33.47,21.92,47.11,8.59,11.35,21.46,15.81,35.17,17.58,16,2.06,32.4,1.36,48.51,2.86,18.66,1.73,37.33,4,55.75,7.46a170.72,170.72,0,0,1,21.22,5c3.35,1.08,11.46,2.89,8.19,6.83-3.48,4.19-15.69,5.86-20.69,7.16-9.93,2.59-20,4.64-30.07,6.52-22.47,4.18-45.15,7.45-67.88,9.83-19.46,2-36.11,2.48-53.94-7.22-20.53-11.17-37.61-28-54.27-44.13-11.46-11.1-23.71-26-38.76-32.36-18.3-7.76-41.47-7.42-60.86-10.29-28.65-4.25-56.22-11.13-81.69-25.31s-49-31.91-71.09-50.8c-20.89-17.85-41-37.06-57.86-58.82-37.13-47.85-56.77-106.88-54.75-167.49,1-30.74,7.45-60.91,17.53-89.91a1.54,1.54,0,0,0-.69-1.69c-11.23-8.18-24.87,1.25-33.61,8.76-16.95,14.54-30.21,33.82-42,52.62-11.09,17.71-21.58,36.44-28.63,56.17-3.15,8.8-4.31,17.83-5.81,27-2.36,14.42-4.64,28.86-6.4,43.37-3.53,29.16-6.36,60.78,1.93,89.42,7.73,26.71,29.55,48.67,50.92,65.3,43.59,33.94,98.36,56.06,150.52,73.38,19.15,6.37,100.86,33.13,89.8-13.29l-2.21,1.7c10.45,4.74,23.82,12.79,22.07,26.17-1.54,11.76-13.4,19.51-23.41,23.78-25.28,10.76-54.39,12.79-81.53,13.18-26.66.39-53.33-1.49-79.88-3.77-25.61-2.21-51.16-6.39-75.65-14.34-45.3-14.71-83-43-115.36-77.4-38.51-41-57.7-92.25-64.07-147.55-6.76-58.62-2.06-117.81-5.72-176.59a1.51,1.51,0,0,0-1.5-1.5c-18.7,1.12-37.69,15-53,24.44-22.38,13.69-44,28.85-67.11,41.28-30.28,16.29-63.58,29.79-97.38,36.49-34.79,6.9-72.28,5-107-1.63a310.83,310.83,0,0,1-96-35.67c-30.93-17.76-56-41-80.26-66.89-10.37-11-21.72-21.57-31.58-33-7.87-9.15-13.33-20.55-19.2-31-8.55-15.19-19.2-39.34-38.27-43.39-32-6.79-51.61,40.59-65.26,61.27-8.25,12.5-22.44,34.55-40.08,33.66-2.93-.15-3.49.82-3.64-2.25-.11-2.35,3.41-6.59,4.64-8.13,3.81-4.75,8.48-8.85,13-12.93,7.93-7.21,17.21-14.34,22.78-23.69,6.9-11.57,10.16-25.44,16.06-37.57s14.27-22.9,25.81-30c30.28-18.68,67.36,2.41,91.05,22.22,41.54,34.72,76.58,77.88,127.22,100.1,22.86,10,49.16,17.84,74.33,17.57,22.57-.25,45.11-5.78,66.52-12.49,43.69-13.69,90-33.65,125.11-63.64a82.45,82.45,0,0,0,14.56-15.53,1.5,1.5,0,0,0-.23-1.81c-22.22-20-51.62-23.63-79.44-31.06-14-3.76-28.14-8.55-39.87-17.34-9.11-6.82-17-15.26-25.1-23.16a355.89,355.89,0,0,0-32-27.82c-8-6.05-13.42-10.6-22.93-12.28-21.62-3.82-45-8.31-67-5.49-1.89.24-1.91,3.24,0,3,15.71-2,32.08.24,47.65,2.43,11.23,1.58,22.78,1.93,32.09,8.57,16.55,11.8,31.47,25.27,46,39.47,9.34,9.15,18.69,18.41,30.39,24.49,17.11,8.89,36.25,12.52,54.82,17a200.47,200.47,0,0,1,26.74,8,92.44,92.44,0,0,1,15.17,7.55c1.64,1,3.27,2.12,4.83,3.28,5.11,3.75,5.89,2.88,3.87,7-4.68,9.51-19.2,17.9-27.53,23.58a350.42,350.42,0,0,1-40.25,23.34c-30.77,15.47-63.56,28.23-97.31,35.42-35.06,7.48-68.1,3.47-101.55-9.63-34.35-13.45-62.42-36.78-89.13-61.64-27.7-25.78-56-58.56-93.85-68.68-36.64-9.78-62.92,12.85-76.54,45.08-3.94,9.34-6.81,19.86-12,28.56-4.61,7.69-12,13.78-18.6,19.73-7.86,7.12-24,18-22.16,30.49a1.51,1.51,0,0,0,1.44,1.1c33.82,3.41,52.56-43.83,67.8-66.33,9-13.31,22.22-31.64,40.67-28.72,11.84,1.87,19.27,12.28,25.46,21.63,6.94,10.49,12.74,21.68,19,32.58,13.79,24,35,42.84,54,62.71,23.43,24.43,48.69,45.2,78.56,61.33,56.25,30.38,124.47,44.68,188.1,35.31,61.08-9,113.64-41.23,164.86-73.39,11.16-7,22.4-14,34.06-20.13a141.37,141.37,0,0,1,15.37-7.21c1.81-.69,3.65-1.35,5.52-1.86a12,12,0,0,1,2.17-.57c3.07-.23,2.26-1.18,3.43.9s.46,8.44.56,10.77q.24,5.4.4,10.8c.26,8.25.4,16.5.48,24.76.17,16,.11,32,.23,48,.44,59.7,3.36,121.65,31,175.89,25.27,49.53,71.58,93.14,121.37,117.73,52.27,25.82,112.45,30.17,169.86,31.54,31.4.75,64.12-.37,94.19-10.31,15.36-5.07,39.44-18.32,32.39-38.43-3.48-10-13.61-15.78-22.62-19.87a1.52,1.52,0,0,0-2.21,1.69c10.76,45.14-84.08,10.71-102.14,3.94-61.48-23-133.87-50.64-172-107.47-18.84-28.06-17.69-63.84-14.79-96.21,1.57-17.51,4.17-34.9,7-52.24,1.65-10.2,2.65-20.72,5.9-30.57,7.32-22.17,19.59-43.23,32.2-62.76,12.48-19.32,27.34-41.83,47.5-54,3.21-1.94,6.75-3.74,10.51-4.27a14.75,14.75,0,0,1,5.38.1c4,.93,3.26,1.16,3.31,4.05.08,4-3.46,10.65-4.61,14.61q-2.12,7.24-3.88,14.59-3.45,14.39-5.48,29.06c-4.92,35.74-3.07,72.38,6.58,107.21,19.63,70.88,69.89,124.83,126.91,168.7,27.79,21.39,57.64,41.14,91.76,50.57,17,4.7,34.45,7.4,51.9,9.72,14.63,1.94,30,2.81,44.17,7,10.42,3.1,18.6,10.94,26.41,18.18,10.46,9.68,20.44,19.87,30.94,29.52,18.22,16.76,40.22,36.16,65.87,39.09,10.24,1.17,21-.53,31.2-1.62,13.51-1.45,27-3.25,40.41-5.31,24.23-3.7,51-6.68,73.74-16.49,12.49-5.4,4.06-11.3-4.95-14.21-20.58-6.64-43-8.82-64.44-11.2-10.26-1.14-20.55-2.14-30.86-2.72-12-.66-24-.08-35.89-2.27-25.14-4.63-33.34-23.12-42.16-44.77-9.9-24.31-20.18-49.51-42.67-64.84-25.27-17.22-57.85-22.28-86.35-31.83-31.4-10.51-57.81-26.39-82.27-48.72-29.67-27.1-42.27-64.15-38.38-103.85,2.24-22.89,4.25-46,7.89-68.71,1.64-10.24,3-22.09,8-31.38,4.57-8.57,12.31-5.4,19-.87,19.94,13.42,35.06,35.41,49.6,54.13,11.82,15.23,22.94,33.57,38.49,45.33,30.53,23.08,63.92,43.59,99.28,58.38,34.81,14.55,71.33,18.55,108.83,18,20.87-.3,41.72-1.86,62.5-3.82,19.28-1.82,38.58-3.49,57.44-8.07,36.34-8.83,69.32-26.31,102.35-43.28,27.65-14.21,55.32-27.91,77-50.77a208.49,208.49,0,0,0,25.49-33.83c8.92-14.35,15.62-31.23,28.14-42.94,20.57-19.24,50.72-11.43,76-10.8,27.32.68,56.32.38,82.75-7.29,22.57-6.54,45.23-21.62,49.51-46.48,3.58-20.83-8.47-45.28-21.69-60.58-12.86-14.88-31.37-22.61-47.78-8.43a1.51,1.51,0,0,0,.66,2.51c19.38,6.08,38,20.64,43.66,40.89,6.4,22.84-9.35,39.73-30.31,46.11-29.58,9-59.91-3.52-87.43-13.75-20.89-7.76-44.11-17.51-66.64-11.29-19.39,5.34-34.37,20.2-47.74,34.44-16.84,17.93-32.48,35.33-53.52,48.53-50,31.33-106.74,47-165.22,51.7-29.52,2.36-59.19,2.26-88.77,1.16-27.73-1-54.81-4-80.8-14.29a166.31,166.31,0,0,1-64.6-46c-12.82-14.89-23.6-32.09-35.25-47.93-9.63-13.1-22-27.81-26.41-43.79-5.76-21.12,25.1-10.13,35.08-7.28,19.93,5.7,40.07,10.77,60.24,15.51,16.07,3.78,31.82,8,48.4,7.1,25.91-1.37,52.69-7.46,75.07-21,20.45-12.36,36.12-33.61,47.33-54.39,11.57-21.45,16.76-45.09,20.69-69,3.31-20.11,9.35-41.4,25.29-55.28,28.08-24.43,71.14-13.56,102.78-3.34,34.07,11,66,27.93,100,38.73,14.5,4.59,29.37,8.23,44.24,11.39,13.33,2.83,29,7,42.68,5,6.78-1,10.31-4.88,5.84-11.07-7.46-10.32-23.18-16.76-34-22.57-32.45-17.48-66.82-31.54-97.73-51.71-40.08-26.14-86.43-56-135.71-58.56-104.8-5.44-99.47,135.94-167.74,183.35-14.69,10.2-31.23,11.44-48.65,11.19-20.42-.3-42.44-2.77-61.09-11.65-8-3.82-14.83-8.88-19.34-16.65-2-3.41-4.2-5.44-1-7.37,4.52-2.72,15.38-1.91,20.46-2.59a325.18,325.18,0,0,0,39.53-7.38c21.88-5.8,44.06-16.92,55.75-37.2,12.65-21.94,13.06-49.68,13.07-74.27,0-23-4.79-52,6-73.32,8.25-16.39,26.78-17.51,43.08-17.41,26.08.15,52.81.31,78.6,4.34,28.74,4.48,56.07,14.37,82.91,25.26,7.82,3.17,70.42,29.12,71.21,13.09.23-4.67-5.58-9.82-8.56-12.66-6.21-5.91-13.44-10.84-20.56-15.57-18.25-12.1-37.7-23.26-57.88-31.84-25.94-11-54.8-17.3-82.31-23-28.45-5.85-58-11.51-87.13-11.74-24.52-.2-49.79,4.75-68.48,21.67-16.2,14.67-23.85,35.59-29.45,56.16-5.83,21.4-9.2,45.24-21.1,64.37-8.94,14.37-22.87,24.57-38.64,30.36-33.87,12.44-73.31,6.64-106.14-6.29s-66.69-36.27-79.37-70.63c-8.3-22.5-2.89-42,8.57-62.37,10-17.79,22.55-37.4,16.69-58.73-6.37-23.23-31-36-36.63-59.59-4.11-17.07,3.74-33.23,9.23-49a419.18,419.18,0,0,1,20.27-47.4c13.77-28,29.57-55.11,40.77-84.26,11.81-30.78,16.72-63.46,24.49-95.35,15.34-63,29.28-126.53,19.59-191.63-7.42-49.86-28.21-103-62.57-140.65-35.62-39.07-84.91-58.86-137.25-60.15-49.25-1.21-99.85,11.57-140.81,39.42-36.86,25.07-64.15,61.44-81.23,102.36-23.46,56.18-23.46,117.6-15.59,177.07a662.82,662.82,0,0,0,19.09,94.22c9,31.89,21.23,62.57,31.47,94,9.35,28.75,12.64,58.33,16,88.23,2.94,26.63,6,53.82,3.49,80.6a1.51,1.51,0,0,0,2.79.76l.69-1.54a1.5,1.5,0,0,0-2.59-1.51c-7.39,11.7-16.39,23-21.91,35.8-4.36,10.07-5.12,20.83-4.71,31.68,1.21,31.68,27.74,53.84,30.26,85.09,5.16,64-48,108.44-103.3,128-30.44,10.76-63.23,13.48-94.64,5.31-28.75-7.48-54.68-23.19-77-42.58-23.2-20.18-42.84-44.26-59.9-69.76-14.14-21.14-33.32-36.32-56.19-47.31-21.08-10.14-44.46-17.29-67.9-18.68-20.36-1.2-40.17,5.56-59.75,10.25-13.87,3.31-34.55,9.64-45.21-3.64-12.75-15.89-9.73-42.4-10.09-61.42A249.77,249.77,0,0,0,240,859.91c-.64-4.81-1.12-13.77-5.45-17.13-11.52-8.94-17.44,25.15-18.05,29.88-1.59,12.35-1.89,24.83-1.95,37.26-.07,12.7-.74,25.72,1.09,38.34,3,20.84,18,32.34,38,36.66,50.52,11,106.42-1.83,145.13,40.35,20.93,22.8,33.05,51.9,53.42,75,18.17,20.63,43.33,33.79,62.93,53,10.07,9.89,19.58,21.25,23,35.25l1.85-1.84c-57.48-8.68-99.34-59.74-158.55-63.08-30.66-1.72-65.11,2-91.52,18.82-24.71,15.72-42.19,40.89-68.59,54.27-35.38,17.94-73.64,3.51-111,8.38-1.09.14-2.22,1.65-1.06,2.56,27.59,21.61,58.64,32,93.69,26.92,42.4-6.17,77.81-32.72,119.71-39.54C324.49,1194.74,323.69,1191.85,321.79,1192.16Z"/><g id="Слой_5" data-name="Слой 5"><ellipse cx="840.25" cy="905.37" rx="43.9" ry="39.96" style="fill:#fff;stroke:#000;stroke-miterlimit:10"/><ellipse cx="1045.1" cy="905.37" rx="43.9" ry="39.96" style="fill:#fff;stroke:#000;stroke-miterlimit:10"/></g></svg>