<?xml version="1.0" encoding="utf-8"?>
<!-- Generator: Moho 12.2 build 21774 -->
<!DOCTYPE svg PUBLIC "-//W3C//DTD SVG 1.1//EN" "http://www.w3.org/Graphics/SVG/1.1/DTD/svg11.dtd">
<svg version="1.1" id="Frame_1" xmlns="http://www.w3.org/2000/svg" xmlns:xlink="http://www.w3.org/1999/xlink" width="1280px" height="720px">
<g id="Bukvi">
<g id="POLOSA">
<path fill="#00299d" fill-rule="evenodd" stroke="none" d="M 4.780 651.268 C 5.494 652.056 1277.781 652.056 1278.494 651.268 C 1278.506 651.254 1278.506 635.337 1278.494 635.323 C 1277.781 634.535 5.494 634.535 4.780 635.323 C 4.768 635.337 4.768 651.254 4.780 651.268 Z"/>
</g>
<g id="R">
<path fill="#000000" fill-rule="evenodd" stroke="#000000" stroke-width="1" stroke-linecap="round" stroke-linejoin="round" d="M 126.345 528.905 C 126.452 531.005 126.095 533.971 126.959 535.888 C 128.266 538.789 131.701 541.822 134.486 543.362 C 138.812 545.755 147.984 542.501 150.627 546.678 C 151.775 548.493 151.224 552.091 149.925 553.802 C 149.172 554.794 147.362 555.236 146.154 555.539 C 140.139 557.042 131.688 555.515 125.488 555.539 C 113.594 555.584 97.736 555.921 85.842 555.861 C 74.525 555.805 59.340 556.693 48.125 555.180 C 46.373 554.944 43.739 555.017 42.377 553.892 C 41.268 552.976 40.381 550.976 40.375 549.538 C 40.368 547.859 41.444 545.531 42.743 544.468 C 46.352 541.513 53.951 544.397 58.148 542.362 C 60.378 541.281 63.124 539.032 64.306 536.854 C 66.452 532.898 65.696 526.435 65.933 521.940 C 66.661 508.149 65.274 489.722 65.201 475.912 C 65.056 448.510 65.976 411.976 65.824 384.574 C 65.757 372.595 66.333 356.572 65.180 344.648 C 64.884 341.592 65.371 337.017 63.552 334.543 C 61.860 332.240 57.738 331.226 55.061 330.227 C 50.944 328.689 43.579 330.238 40.813 326.823 C 39.937 325.742 39.709 323.593 40.060 322.246 C 40.409 320.907 41.738 319.335 42.933 318.636 C 46.577 316.503 52.753 317.819 56.972 317.629 C 83.253 316.445 118.360 316.228 144.662 316.804 C 159.425 317.128 179.274 316.736 193.823 319.261 C 205.132 321.224 220.458 324.580 230.510 330.121 C 237.485 333.966 246.019 340.900 250.739 347.315 C 254.512 352.443 257.916 360.530 259.248 366.755 C 260.329 371.804 260.087 378.830 259.546 383.966 C 259.184 387.402 258.223 391.959 257.056 395.211 C 255.453 399.678 252.809 405.612 249.758 409.248 C 241.749 418.791 226.972 427.696 215.712 433.030 C 211.288 435.126 204.632 435.955 200.132 437.885 C 199.260 438.259 197.325 438.731 197.331 439.356 C 197.337 440.015 199.430 440.388 200.348 440.790 C 205.772 443.171 213.686 444.890 218.736 447.987 C 227.917 453.619 239.043 463.484 245.019 472.445 C 247.940 476.825 250.120 483.660 251.616 488.708 C 255.770 502.724 252.718 523.991 259.889 536.729 C 261.559 539.695 264.594 543.811 267.845 544.819 C 271.396 545.919 276.401 543.315 279.986 542.327 C 282.863 541.535 286.762 537.666 289.390 539.081 C 291.666 540.307 292.732 544.960 291.777 547.362 C 286.549 560.507 260.200 560.032 246.090 559.030 C 234.533 558.210 218.684 552.648 210.210 544.748 C 204.579 539.499 201.121 529.170 198.384 521.975 C 193.531 509.214 192.611 490.495 187.822 477.709 C 186.020 472.897 183.568 466.248 180.191 462.375 C 176.289 457.901 169.303 453.462 163.752 451.357 C 153.889 447.615 139.300 446.687 128.791 447.599 C 128.144 447.656 127.104 447.585 126.678 448.076 C 126.089 448.756 126.609 450.174 126.590 451.074 C 126.319 464.299 126.269 481.937 126.239 495.165 C 126.216 505.287 125.829 518.796 126.345 528.905 Z"/>
<path fill="#ffffff" fill-rule="evenodd" stroke="#000000" stroke-width="1" stroke-linecap="round" stroke-linejoin="round" d="M 126.602 435.129 C 125.718 434.257 126.300 432.245 126.241 431.005 C 125.504 415.582 126.534 394.977 126.655 379.537 C 126.736 369.126 127.133 355.243 126.918 344.834 C 126.890 343.471 126.598 341.651 126.731 340.295 C 126.854 339.035 127.070 337.282 127.711 336.190 C 128.931 334.113 131.575 331.820 133.841 331.003 C 143.893 327.381 159.436 330.943 169.195 335.292 C 175.133 337.938 182.044 343.853 185.919 349.074 C 189.928 354.476 193.249 363.178 194.523 369.784 C 196.384 379.435 196.383 393.113 193.579 402.534 C 191.407 409.833 186.077 419.057 180.603 424.353 C 176.646 428.182 169.933 431.835 164.677 433.480 C 154.872 436.549 140.759 435.714 130.488 435.459 C 129.318 435.430 127.435 435.951 126.602 435.129 Z"/>
</g>
<g id="U">
<path fill="#000000" fill-rule="evenodd" stroke="#000000" stroke-width="1" stroke-linecap="round" stroke-linejoin="round" d="M 444.642 420.940 C 443.783 418.473 441.907 415.216 439.759 413.730 C 435.319 410.656 426.306 413.876 422.039 410.567 C 421.047 409.797 420.085 408.217 419.883 406.978 C 419.557 404.972 420.087 401.771 421.613 400.430 C 423.329 398.921 426.901 399.715 429.181 399.567 C 436.274 399.109 445.766 399.513 452.874 399.465 C 465.265 399.382 481.798 398.533 494.178 399.076 C 494.916 399.108 496.071 398.794 496.632 399.275 C 497.442 399.969 497.167 401.712 497.267 402.774 C 497.584 406.156 497.141 410.699 497.123 414.096 C 497.062 426.195 497.306 442.327 497.299 454.426 C 497.286 477.616 495.753 508.559 496.821 531.724 C 496.936 534.216 496.614 537.685 497.517 540.010 C 498.638 542.893 501.244 546.546 503.926 548.090 C 507.495 550.145 513.699 548.302 517.556 549.748 C 518.728 550.188 520.457 550.862 521.112 551.928 C 522.051 553.456 521.990 556.219 521.368 557.901 C 520.868 559.253 519.476 560.907 518.149 561.472 C 517.133 561.904 515.571 561.445 514.466 561.439 C 504.372 561.387 490.913 561.456 480.818 561.439 C 470.964 561.423 457.809 561.894 447.971 561.333 C 447.353 561.297 446.389 561.539 445.918 561.138 C 445.280 560.596 445.434 559.241 445.328 558.411 C 444.486 551.806 445.366 542.871 445.129 536.216 C 445.073 534.637 445.147 531.069 444.832 530.958 C 444.456 530.824 442.294 534.574 441.072 536.017 C 436.058 541.931 429.367 550.167 422.809 554.302 C 414.717 559.406 402.097 563.212 392.634 564.625 C 386.361 565.562 377.729 565.402 371.496 564.226 C 366.112 563.210 358.970 560.897 354.334 557.975 C 348.485 554.290 341.273 547.791 338.043 541.679 C 329.912 526.296 331.574 501.530 330.615 484.156 C 329.910 471.385 331.209 454.315 331.201 441.524 C 331.198 436.607 331.782 429.990 330.994 425.137 C 330.595 422.683 329.914 419.318 328.615 417.198 C 327.548 415.458 325.541 413.413 323.741 412.450 C 319.401 410.127 310.612 413.715 307.538 409.871 C 305.785 407.680 305.488 402.679 307.283 400.522 C 309.474 397.891 315.200 399.387 318.617 399.168 C 326.178 398.686 336.295 399.213 343.872 399.178 C 352.692 399.136 364.452 398.895 373.273 398.886 C 375.629 398.883 378.791 398.620 381.126 398.933 C 381.822 399.026 382.949 398.942 383.401 399.479 C 383.954 400.136 383.481 401.482 383.499 402.340 C 383.918 422.552 383.579 449.510 383.591 469.726 C 383.600 484.079 380.962 503.459 383.587 517.570 C 384.497 522.465 385.973 529.325 389.044 533.244 C 391.669 536.592 396.747 539.979 400.852 541.095 C 405.836 542.450 413.255 541.881 418.028 539.908 C 423.740 537.547 429.840 531.252 433.419 526.214 C 437.657 520.248 440.850 510.714 442.550 503.598 C 443.809 498.331 443.917 491.033 444.248 485.628 C 445.184 470.355 445.615 449.933 445.330 434.635 C 445.254 430.522 445.996 424.825 444.642 420.940 Z"/>
</g>
<g id="V">
<path fill="#000000" fill-rule="evenodd" stroke="#000000" stroke-width="1" stroke-linecap="round" stroke-linejoin="round" d="M 871.747 336.486 C 870.358 335.225 868.157 333.890 866.392 333.254 C 860.983 331.305 851.863 334.812 847.330 331.276 C 846.209 330.402 845.245 328.489 845.144 327.071 C 844.999 325.041 845.987 321.994 847.593 320.742 C 849.969 318.889 854.599 320.127 857.609 320.000 C 873.807 319.318 895.439 319.875 911.651 320.000 C 924.301 320.098 941.209 319.567 953.814 320.637 C 959.096 321.086 968.201 318.869 971.303 323.168 C 972.586 324.947 972.446 328.752 971.089 330.475 C 967.190 335.424 956.188 330.566 950.184 332.476 C 948.416 333.039 945.795 333.829 944.695 335.322 C 943.188 337.368 943.256 341.170 943.467 343.702 C 943.920 349.140 947.655 355.730 949.676 360.798 C 955.000 374.150 963.243 391.471 969.065 404.613 C 973.390 414.377 979.177 427.387 983.494 437.155 C 988.871 449.325 995.612 465.749 1001.365 477.746 C 1002.747 480.627 1005.374 487.259 1006.213 487.230 C 1007.072 487.201 1009.155 480.176 1010.404 477.148 C 1015.312 465.255 1021.680 449.327 1026.630 437.452 C 1033.130 421.860 1042.255 401.264 1048.677 385.639 C 1053.488 373.933 1062.832 359.010 1064.259 346.435 C 1064.638 343.094 1065.164 337.996 1063.182 335.279 C 1061.990 333.645 1059.086 332.848 1057.146 332.276 C 1051.268 330.542 1041.236 335.001 1036.770 330.803 C 1035.586 329.690 1035.012 327.231 1035.203 325.617 C 1035.331 324.531 1036.075 323.081 1036.939 322.409 C 1041.474 318.879 1050.251 320.708 1055.989 320.398 C 1069.550 319.665 1087.727 319.511 1101.257 320.683 C 1103.441 320.872 1106.638 320.567 1108.485 321.748 C 1109.864 322.629 1111.404 324.610 1111.587 326.236 C 1111.755 327.743 1110.885 329.947 1109.742 330.943 C 1105.853 334.335 1097.584 331.277 1092.633 332.733 C 1090.473 333.368 1087.551 334.467 1085.846 335.938 C 1083.773 337.726 1082.179 341.182 1080.866 343.585 C 1073.064 357.860 1066.152 378.577 1059.876 393.586 C 1052.813 410.479 1043.393 433.003 1036.412 449.931 C 1028.676 468.689 1018.675 493.830 1010.844 512.549 C 1004.973 526.583 995.565 544.691 990.899 559.170 C 990.705 559.772 990.858 560.798 990.381 561.214 C 989.668 561.834 988.179 561.352 987.234 561.377 C 983.169 561.483 977.742 561.441 973.678 561.282 C 972.909 561.251 971.750 561.557 971.117 561.118 C 970.324 560.568 970.256 559.038 969.883 558.148 C 959.172 532.591 944.757 498.573 933.803 473.120 C 925.724 454.348 914.725 429.417 906.572 410.678 C 899.639 394.740 890.865 373.279 883.505 357.534 C 881.300 352.817 878.553 346.402 875.806 341.979 C 874.725 340.238 873.265 337.863 871.747 336.486 Z"/>
</g>
<g id="I">
<path fill="#000000" fill-rule="evenodd" stroke="#000000" stroke-width="1" stroke-linecap="round" stroke-linejoin="round" d="M 1166.393 351.182 C 1183.022 351.182 1194.435 337.804 1194.435 323.505 C 1194.435 309.207 1183.022 295.829 1166.393 295.829 C 1149.763 295.830 1138.350 309.207 1138.350 323.505 C 1138.350 337.804 1149.763 351.182 1166.393 351.182 Z"/>
<path fill="#000000" fill-rule="evenodd" stroke="#000000" stroke-width="1" stroke-linecap="round" stroke-linejoin="round" d="M 1192.934 393.900 C 1193.903 394.883 1192.927 400.043 1192.934 402.676 C 1192.966 414.653 1193.121 430.621 1193.176 442.598 C 1193.274 463.761 1192.936 491.983 1193.386 513.142 C 1193.532 520.027 1191.088 529.947 1194.216 536.082 C 1195.686 538.963 1199.390 541.787 1202.282 543.236 C 1206.464 545.331 1215.147 542.101 1217.613 546.075 C 1218.832 548.039 1218.077 552.017 1216.489 553.696 C 1214.932 555.343 1211.339 554.936 1209.092 555.234 C 1203.208 556.015 1195.262 556.014 1189.328 556.117 C 1172.805 556.402 1150.688 556.943 1134.250 555.247 C 1128.778 554.682 1119.239 556.652 1116.191 552.072 C 1115.139 550.492 1115.304 547.216 1116.512 545.752 C 1119.025 542.707 1125.776 545.216 1129.570 544.123 C 1131.560 543.550 1134.504 542.870 1135.877 541.320 C 1141.866 534.561 1140.006 520.614 1140.740 511.612 C 1141.541 501.800 1140.732 488.640 1140.712 478.795 C 1140.685 465.148 1141.004 446.944 1140.565 433.303 C 1140.370 427.251 1141.906 418.672 1139.417 413.153 C 1138.375 410.841 1135.935 408.180 1133.763 406.871 C 1129.483 404.291 1120.643 407.341 1117.449 403.496 C 1116.074 401.841 1115.577 398.328 1116.503 396.386 C 1117.127 395.076 1119.122 394.113 1120.503 393.668 C 1122.640 392.981 1125.741 393.674 1127.986 393.672 C 1139.361 393.664 1154.526 393.647 1165.901 393.580 C 1172.245 393.542 1180.711 393.110 1187.049 393.390 C 1188.820 393.468 1192.282 393.238 1192.934 393.900 Z"/>
</g>
</g>
<g id="Osminog">
<g id="1">
<path fill="#00299d" fill-rule="evenodd" stroke="#000000" stroke-width="2" stroke-linecap="round" stroke-linejoin="round" d="M 577.089 374.849 C 577.939 373.889 577.416 371.747 576.884 370.580 C 574.069 364.404 563.593 361.836 558.652 357.182 C 555.628 354.335 552.036 350.059 549.683 346.637 C 545.703 340.850 543.062 331.463 538.687 325.968 C 535.998 322.588 531.895 318.166 527.979 316.345 C 519.411 312.362 505.245 317.386 496.608 313.554 C 494.261 312.513 491.422 310.289 489.939 308.194 C 487.535 304.800 486.240 299.117 485.711 294.991 C 484.863 288.396 487.527 279.530 487.310 272.884 C 487.214 269.944 483.640 264.744 486.113 263.152 C 488.723 261.473 493.110 266.157 494.809 268.754 C 499.641 276.134 490.048 292.294 496.690 298.097 C 504.739 305.129 521.561 292.370 532.097 294.162 C 537.316 295.049 543.969 298.133 548.270 301.220 C 564.680 312.994 572.363 344.926 590.627 353.549 C 600.053 357.999 615.723 359.295 625.329 355.249 C 638.600 349.660 653.324 332.460 655.974 318.306 C 657.000 312.831 653.964 305.319 651.670 300.243 C 650.416 297.467 647.277 294.588 645.992 291.826 C 644.744 289.147 643.424 285.306 643.281 282.354 C 643.137 279.383 644.019 275.383 645.077 272.603 C 646.452 268.990 650.667 265.325 651.867 261.650 C 654.520 253.523 653.631 241.690 652.900 233.173 C 651.924 221.789 646.989 207.174 644.786 195.963 C 640.784 175.608 633.551 148.561 633.022 127.823 C 632.722 116.061 633.250 99.929 637.117 88.817 C 641.677 75.717 650.997 58.165 662.187 49.969 C 673.008 42.045 692.033 36.014 705.284 38.084 C 717.032 39.919 731.085 50.275 738.689 59.417 C 746.544 68.862 751.145 85.448 753.992 97.398 C 755.965 105.684 756.927 117.148 756.689 125.663 C 756.151 144.879 750.371 170.141 745.736 188.797 C 742.281 202.706 735.940 220.782 731.111 234.275 C 728.709 240.987 721.424 249.360 722.469 256.412 C 723.064 260.423 728.404 263.867 730.192 267.508 C 732.390 271.985 735.421 278.423 735.078 283.398 C 734.829 287.021 731.892 291.259 730.228 294.486 C 728.459 297.918 724.245 301.714 723.609 305.522 C 723.124 308.423 724.418 312.396 725.446 315.152 C 728.501 323.343 734.123 334.397 741.001 339.792 C 747.062 344.548 757.613 347.430 765.283 348.155 C 770.178 348.617 777.215 348.469 781.549 346.146 C 785.125 344.229 788.583 339.586 790.509 336.015 C 795.942 325.943 792.685 308.504 798.671 298.750 C 801.147 294.717 806.103 290.246 810.337 288.132 C 815.611 285.498 823.794 284.485 829.685 284.705 C 838.261 285.026 849.381 288.891 857.280 292.246 C 867.241 296.477 880.934 302.832 888.166 310.883 C 889.806 312.708 893.256 315.877 892.112 318.048 C 889.437 323.128 879.149 314.599 873.762 312.613 C 867.622 310.349 860.288 304.872 853.847 303.714 C 843.138 301.789 825.756 299.650 817.724 306.992 C 815.146 309.349 814.909 314.661 814.114 318.062 C 810.847 332.019 816.530 353.717 808.359 365.495 C 807.281 367.048 804.973 368.446 803.209 369.128 C 797.164 371.468 785.743 365.447 781.642 370.468 C 779.418 373.191 779.959 379.276 781.935 382.185 C 784.177 385.484 790.322 386.517 794.254 387.187 C 801.050 388.346 811.419 389.312 817.174 385.515 C 823.337 381.450 825.250 370.288 828.310 363.569 C 831.761 355.992 833.536 344.361 838.713 337.841 C 843.758 331.486 852.917 324.119 860.812 322.247 C 865.883 321.044 873.207 322.368 878.068 324.247 C 893.966 330.395 906.970 352.291 922.078 360.183 C 926.517 362.502 938.289 360.415 937.933 365.411 C 937.761 367.825 933.192 368.687 930.839 369.254 C 926.812 370.225 921.028 369.677 917.049 368.524 C 910.200 366.538 902.929 359.695 896.631 356.350 C 888.515 352.040 878.053 343.160 868.867 343.410 C 865.161 343.510 860.261 345.846 857.552 348.376 C 849.168 356.205 847.724 373.303 842.634 383.584 C 838.543 391.845 834.741 404.645 827.466 410.307 C 822.090 414.491 812.525 416.498 805.721 416.848 C 799.221 417.183 790.888 413.381 784.404 412.814 C 780.753 412.494 775.844 413.065 772.186 412.838 C 770.544 412.735 767.742 410.891 766.741 412.196 C 765.522 413.783 768.648 416.466 769.642 418.203 C 777.330 431.637 786.220 452.251 799.417 460.339 C 810.038 466.849 827.966 467.843 840.398 467.043 C 855.999 466.038 876.758 459.621 890.161 451.574 C 899.321 446.074 907.311 433.308 915.917 426.975 C 920.306 423.745 926.317 418.973 931.664 417.917 C 942.367 415.802 957.862 429.686 967.436 424.457 C 971.155 422.425 973.960 416.381 974.396 412.166 C 974.931 406.994 964.449 398.572 968.820 395.755 C 973.690 392.616 980.396 404.755 981.324 410.474 C 982.599 418.336 976.877 429.996 970.443 434.690 C 967.942 436.514 963.429 436.831 960.335 436.762 C 953.160 436.602 944.464 428.817 937.386 430.005 C 934.289 430.525 930.680 433.252 928.459 435.472 C 921.552 442.375 919.305 456.659 913.004 464.120 C 907.079 471.134 896.879 478.423 888.928 483.014 C 876.464 490.212 858.434 498.332 844.177 500.308 C 829.543 502.336 808.763 501.401 795.150 495.659 C 784.091 490.995 772.497 478.945 764.317 470.161 C 758.021 463.399 750.905 453.199 746.264 445.210 C 745.296 443.543 743.485 439.426 743.473 439.422 C 743.461 439.418 739.318 440.834 738.186 442.228 C 731.997 449.854 734.034 464.832 733.609 474.645 C 733.289 482.053 732.327 492.345 734.807 499.333 C 737.292 506.336 743.681 514.640 749.475 519.293 C 759.045 526.979 776.872 528.385 787.341 534.792 C 790.931 536.989 795.627 540.325 798.241 543.625 C 801.875 548.214 804.342 555.866 806.461 561.323 C 808.430 566.392 807.132 576.059 811.939 578.600 C 815.880 580.684 821.895 575.387 826.324 574.872 C 830.633 574.371 836.688 573.742 840.781 575.179 C 845.229 576.741 856.237 581.203 853.199 584.808 C 851.924 586.320 848.650 583.793 846.674 583.877 C 839.804 584.169 831.365 588.809 824.604 590.068 C 819.617 590.995 812.761 592.707 807.779 591.751 C 802.342 590.709 795.454 586.982 791.444 583.165 C 786.542 578.500 785.989 567.121 780.205 563.609 C 775.276 560.617 766.028 565.325 761.020 562.467 C 758.039 560.766 756.740 555.583 754.185 553.290 C 747.419 547.220 733.456 543.303 727.473 538.986 C 721.591 534.742 711.108 525.727 705.838 518.510 C 700.232 510.833 694.429 499.157 692.161 489.925 C 690.948 484.988 691.020 478.091 691.157 473.009 C 691.463 461.647 694.495 446.698 695.974 435.429 C 696.300 432.943 697.086 427.151 697.080 427.145 C 697.073 427.137 688.599 426.699 685.642 428.485 C 677.660 433.304 673.588 446.841 670.554 455.657 C 664.035 474.597 655.281 503.016 662.024 521.876 C 667.544 537.316 688.450 552.620 701.038 560.152 C 710.759 565.969 731.633 581.537 741.178 573.214 C 744.014 570.741 740.753 561.290 742.326 560.721 C 743.667 560.236 748.467 565.200 750.349 567.800 C 752.471 570.729 756.153 575.459 755.048 578.903 C 753.151 584.815 742.474 586.584 736.404 587.888 C 728.927 589.495 718.489 588.122 710.929 586.968 C 697.584 584.931 679.218 581.537 667.688 574.516 C 655.167 566.891 641.389 551.673 634.283 538.851 C 628.604 528.601 625.535 512.806 623.853 501.209 C 622.623 492.728 622.506 481.198 623.129 472.651 C 623.596 466.251 626.125 457.949 626.652 451.554 C 626.768 450.143 627.636 447.928 626.736 446.836 C 626.347 446.364 625.396 446.226 624.785 446.246 C 612.570 446.636 600.463 461.295 589.267 466.191 C 576.288 471.867 558.447 481.249 544.297 480.587 C 535.142 480.159 523.795 474.019 515.845 469.458 C 504.724 463.077 491.598 451.736 482.592 442.609 C 474.399 434.305 470.155 412.710 458.507 412.083 C 455.038 411.896 451.365 416.107 448.916 418.570 C 444.106 423.406 442.965 434.888 436.803 437.813 C 434.222 439.038 429.020 439.804 427.283 437.536 C 426.230 436.160 426.955 433.180 428.014 431.809 C 429.213 430.257 432.575 430.674 434.117 429.460 C 442.534 422.836 442.866 404.724 451.357 398.195 C 453.402 396.623 456.893 395.212 459.469 395.349 C 464.446 395.612 470.076 400.301 474.051 403.308 C 484.376 411.121 492.648 427.706 503.337 435.015 C 512.644 441.379 526.969 448.410 538.229 448.981 C 544.485 449.298 552.812 446.592 558.497 443.964 C 567.320 439.886 576.978 430.790 584.468 424.596 C 586.841 422.634 593.201 420.615 592.104 417.738 C 591.637 416.512 589.182 416.819 587.910 416.493 C 584.579 415.641 579.935 415.291 576.687 414.164 C 570.605 412.053 562.661 408.296 557.655 404.249 C 550.708 398.633 546.982 385.032 538.984 381.054 C 532.326 377.743 521.436 378.087 514.226 379.903 C 506.648 381.811 499.392 391.063 491.922 393.359 C 488.608 394.378 483.854 394.805 480.412 394.390 C 474.071 393.627 466.515 388.992 460.456 386.973 C 459.028 386.498 455.801 387.014 455.655 385.516 C 455.461 383.537 459.994 383.762 461.961 383.470 C 468.396 382.517 477.319 386.428 483.606 384.760 C 497.854 380.979 508.686 358.301 523.185 355.639 C 528.937 354.583 536.881 357.240 542.307 359.419 C 545.528 360.712 549.062 363.919 552.167 365.468 C 559.316 369.034 571.793 380.830 577.089 374.849 Z"/>
<path fill="#ffffff" fill-rule="evenodd" stroke="#000000" stroke-width="0" stroke-linecap="round" stroke-linejoin="round" d="M 660.985 294.618 C 667.855 294.618 673.090 289.320 673.091 283.089 C 673.091 276.858 667.855 271.560 660.985 271.560 C 654.115 271.560 648.879 276.858 648.879 283.089 C 648.880 289.320 654.115 294.618 660.985 294.618 Z"/>
<path fill="#ffffff" fill-rule="evenodd" stroke="#000000" stroke-width="0" stroke-linecap="round" stroke-linejoin="round" d="M 717.346 294.618 C 724.216 294.618 729.452 289.320 729.452 283.089 C 729.452 276.858 724.216 271.560 717.346 271.560 C 710.476 271.560 705.241 276.858 705.241 283.089 C 705.241 289.320 710.476 294.618 717.346 294.618 Z"/>
</g>
</g>
</svg>
