<svg id="Слой_1" data-name="Слой 1" xmlns="http://www.w3.org/2000/svg" viewBox="0 0 800 400"><path d="M26.21,149.53V134.47H73.89v18.89H68.81ZM79,282l42.6,3.83v15.06H26.21V285.83L68.81,282ZM46,213.59c0-26.29,0-52.83-.85-79.12h56.42c-.85,25.78-.85,52.32-.85,79.12v7.92c0,26.54,0,53.09.85,79.38H45.11c.85-25.78.85-52.33.85-79.13Zm28.49-4.34h32.44c27.08,0,33.29-14.8,33.29-29.6,0-20.17-12.13-29.36-32.73-29.36H73.89V134.47h49.36c44.85,0,69.11,15.57,69.11,41.35,0,18.63-15,38.8-70,41.09V214.1c53.88,1,64.6,16.09,68.55,45.18L196,297.57l-28.77-16.33,47.39,4.59v15.06c-16.65,3.32-20.31,4.08-35,4.08-26.52,0-43.16-7.14-45.7-30.12l-2.82-25c-1.69-15.83-7.34-25.27-21.72-25.27h-35Z" style="fill:#fff"/><path d="M278.68,260.3c0,13.28,5.08,17.36,12.41,17.36,9.87,0,23.13-11.74,29.34-21.69h12.69v18.37h-20l8.75-8.67c-12.41,24-31,39.3-56.14,39.3C240.88,305,224,292.72,224.52,259l1.13-69.17,10.15,9.44L211,194.2V182.71l64-8.93,5.08,2.8-1.41,36.25ZM310.84,304l-1.7-30.12,1.13-84.23,10.16,9.7-23.7-5.1V184l62.34-10.21,5.08,2.8-.85,36.25v88.06l-23.41-19.65,36.39,6.89v13Z" style="fill:#fff"/><path d="M548.92,154.65l-45.79-3.83v-15h104v13.78l-45.8,5.1Zm-37.3-18.88h64.6l47.32,123-9.71,7.65L666.3,135.77h20.93L617.77,302.15H581.38Zm158,18.88-33.06-5.1V135.77h64v15l-27,3.83Z" style="fill:#fff"/><path d="M710,302.15c.61-11.48.91-37.77.91-53.59V236.31c0-14-.3-21.94-.91-32.15l-16.38-2.3V191.4L764,173.79l5.46,2.81-.91,38v33.94c0,15.82.3,42.11.91,53.59Zm71.58-13v13H696.94v-13L723,284h29.42ZM711.19,136.79c0-12.76,12.44-21.95,27.91-21.95S767,124,767,136.79s-12.44,21.94-27.9,21.94S711.19,149.55,711.19,136.79Z" style="fill:#fff"/><path d="M339.6,201.29c-5.21.76-9.89,3.84-14.91,5.42-8.19,2.57-14.29,2-20.85-3.23,7.13-1,13.6,2.52,21-2.75,5.62-4,7.85-8.58,15.23-10.22a34.63,34.63,0,0,1,12.07-.51c7.3,1.13,16.45,9.33,24.14,10.37-1.1-5.19-9-10.11-12.14-12.67-3.84-3.12-5.44-6.78-8.12-10.72-5.54-8.11-9.11-9.42-18.83-10.25-3.14-.27-8.58-.3-11.39-1.63-4.39-2.07-4.11-5.13-4.1-11.4,0-2.35,0-8.13,1.36-10.38,2.74-4.67,2.72,5.64,2.74,8.3.12,14.26,5.42,9.87,16.46,7.78,5.49-1,18.46,2.58,23.5,10.26,9,13.77,22.66,25.31,40.54,18.49,10.25-3.91,18.1-11.6,16.73-22.5-.58-4.55-4.67-8-5-12.59-.38-5.85,1-6.63,4.41-12.07l-.11.26c.55-5.19-.55-13-1.1-18.15a49.48,49.48,0,0,0-2.81-12.18c-2.69-7.3-5.42-15.44-6.8-23-2-11.1-3.25-23.4.52-34.16,5-14.28,15.82-24,32.08-26,5.86-.72,13.24-.22,18.53,2.22,10.2,4.69,14.92,11.94,18.5,21.31,5.19,13.58,3.14,27.15-.43,40.88-1.6,6.16-2.34,12.38-4.9,18.46-3.06,7.25-7.4,13.8-9.93,21.33-1,3.12-2.34,5.42-1.28,8.71,1.23,3.83,5.61,6.15,6.18,10.32.79,5.66-5.45,10.06-5.22,15.69.66,16.26,33.45,26.07,40.05,9.85,2.94-7.23,2.45-16.16,10.16-20.18,5-2.63,11.75-1.74,17.21-.88a112.42,112.42,0,0,1,18.71,4.47C555.1,161,564,166,566.62,168.73c4.39,4.67-6.85.71-10.42-.75-7.4-3-13.13-4.86-21.4-4.95-9.12-.1-14.41-1.81-14.73,8.25-.18,5.78.71,13.46-1.72,18.72-1.92,4.14-6.29,6.33-11.19,7.34-9.66,2-9.93.44-8.56,3,2.74,5.18,16.38,5.48,19.75,4.15,8.18-3.24,12-16.54,15.91-23.34,8.87-15.58,24.13-7.78,39,2.07,3.26,2.18,18.65,8.82,20.58,11.45,2.74,3.75-13.76-.68-16.22-1.6-13.42-5-34.65-17.25-37.94,3.54-1.21,7.58-2.63,12-8.12,18.25-3.42,3.89-10.42,6.22-17.55,6.22-1.91,0-13.48-2.92-17.56-4.15-12.07-3.63-.49,9.09,2.92,14.31,5.44,8.32,14.05,12.74,24.43,13.25,17.8.86,32.92-.24,47.26-9.92,6.73-4.55,10.83-14.56,19.57-13.09,6.62,1.11,14.29,6.46,21.34,4.55,10-2.71,6.18-12.93-1.8-15.3,5.7-5.21,12.6,6.87,11.19,11.9C619,230.9,608,231,600.75,231.06c-8.33.05-12.69-2.5-17.12,5.58-4.61,8.43-8.1,12.21-17,16.63-7.42,3.68-14.81,8.29-24.68,9.33-8.56.9-19.06,1.95-27.43,0-7.51-1.74-16.85-7.44-22.9-12.05-3.08-2.35-13.25-18.89-17.22-17.22-2.29,1-3,14.21-3.38,16.65-1.06,7.32.73,13.86,6.19,18.85,6.33,5.79,10,7.31,18.65,9.85,8,2.37,12.07,3.63,15.35,10.6,4.08,8.68,3.1,12.22,13.73,12.22,4,0,23,2.07,18.65,4.15-4.22,2-19.16,4-23.59,4.15-8.23.26-17-13-21.39-14.53-3.92-1.38-13.73-1.16-21.27-4.6S459.93,279,454.71,273c-11.32-13-13.94-29.4-8.13-45.84-5-3.94-16.92,16.26-17.79,21.73-1.19,7.55-3.87,21,0,27.61,5.77,9.83,18.75,15.09,29.17,19.15,3.52,1.37,20.44,7.53,18.3-.69,6.16,2.64,4.3,7.18-.66,9.05-7.72,2.91-18.52,2.13-26.65,1.46-14.83-1.21-23.79-5.92-33.2-16.14C401.65,274,405.67,254,404.44,235c-4.05.12-15,8.53-21.05,11.52-5.66,2.82-12.83,5.73-19.2,6.23A52.93,52.93,0,0,1,328,242.38c-4.58-3.42-9.18-9.07-13.17-13-2.61-2.55-5.75-11.37-9.21-12.66-8.21-3.06-11.09,16.81-19.32,15.77-.55-2.35,5.9-5.89,7.13-8.81,2.2-5.19,2.74-7.77,6-10.38,4.24-3.35,10.53-2,17,3.63,10.16,8.87,15.72,16.9,30.72,19.19,10.49,1.61,32.92-8.81,37.18-15.17-5-4.67-12.49-3.9-18.53-7.13-3.81-2-6-6.22-13.71-11.41C352.12,202.44,343.47,200.72,339.6,201.29Z" style="fill:#f38f1c"/><path d="M339.2,199.84c-6.38,1-11.85,4.91-18.15,6.29a18.6,18.6,0,0,1-16.15-3.71L303.84,205c5.12-.67,10.25.85,15.35-.16,5.29-1,9-4.87,12.81-8.31,4.12-3.67,8.85-5.07,14.32-5.29a22.09,22.09,0,0,1,8,.88,40.24,40.24,0,0,1,6.51,3.06c4.73,2.59,9.58,5.83,15,6.65A1.52,1.52,0,0,0,377.7,200c-1.05-4.35-5-7.53-8.34-10.15-1.61-1.25-3.32-2.39-4.85-3.75a29.21,29.21,0,0,1-5.14-6.61c-2.39-3.82-4.91-7.81-8.61-10.49-3.14-2.27-6.95-3-10.71-3.46-2.41-.28-4.83-.39-7.24-.57-2.19-.17-4.64-.3-6.64-1.31-3.78-1.92-3-6.62-3-10.21a44.53,44.53,0,0,1,.37-6.53,9.64,9.64,0,0,1,.64-2.55c0-.08.55-.77.54-.83s-10.83,2.23-1,0c-.28.07-.15-.46-.18-.09a10.86,10.86,0,0,0,.4,1.72c.11.81.16,1.64.2,2.46.07,1.43.08,2.86.1,4.3,0,3.13,0,7.46,2.51,9.84,1.92,1.86,4.68,1.6,7.1,1.13,3.34-.65,6.7-2,10.11-2.12a26.83,26.83,0,0,1,11.59,2.75,25.5,25.5,0,0,1,5.76,3.56,25.21,25.21,0,0,1,4.31,5.18,58.43,58.43,0,0,0,9.74,11.08c7.38,6.36,16.65,9.75,26.38,7.74,8.93-1.85,18.43-7.53,21.73-16.42A17.35,17.35,0,0,0,423,161c-1.12-2.26-2.75-4.39-3.3-6.89a11.13,11.13,0,0,1,.42-6.49,45.38,45.38,0,0,1,3.62-5.87l-2.59-1.51-.12.26,2.8.76a67.69,67.69,0,0,0-.62-13.86c-.57-5.11-1.12-10.18-2.72-15.09-1.73-5.31-3.78-10.49-5.31-15.87a108.68,108.68,0,0,1-3.25-16.09c-1.31-10.39-1.11-21.08,3.53-30.68a35.89,35.89,0,0,1,16.2-16.73,39.28,39.28,0,0,1,27-2.83c8.38,2.28,14.91,8.59,18.75,16.2,5,9.82,6.26,20.51,4.83,31.35-.75,5.7-2.28,11.2-3.55,16.79s-2.26,11.24-4.59,16.52c-2.19,5-4.94,9.66-7.19,14.59-1.11,2.42-2,4.9-2.9,7.4-.82,2.25-1.52,4.49-1.08,6.91.77,4.25,4.79,6.36,6.17,10.23s-2.1,7.8-3.67,11.17c-5.91,12.75,9.68,22.66,20.28,24.55,5.52,1,11.86.74,16.57-2.66,6-4.33,6.07-12,8.42-18.35,1.51-4.1,4.36-7.12,8.69-8.19,4.81-1.2,10-.27,14.82.54a113,113,0,0,1,16.24,3.92,45.57,45.57,0,0,1,9.57,4.73,37,37,0,0,1,4.44,3c.48.39.88.86,1.34,1.28.08.07.27.43.3.43-.49,0,.45-1,.33-.79.49-.81.31-.24.21-.31a8.62,8.62,0,0,0-1.18-.09,19,19,0,0,1-2.11-.49c-1.48-.4-2.94-.88-4.38-1.4-3.85-1.39-7.57-3.07-11.53-4.17a57.73,57.73,0,0,0-14.22-1.79c-5.56-.15-12.57-1-14.23,5.83-1,4.27-.36,8.89-.48,13.24s-.65,9.44-4.47,12.33c-3.58,2.7-8.47,3.38-12.8,3.92-1.53.19-4.73,0-4.79,2.22-.06,1.91,2.09,3.92,3.52,4.82,2.74,1.74,6.18,2.34,9.36,2.66a25.58,25.58,0,0,0,8.64-.33c3.16-.81,5.76-3.29,7.7-5.79,4.79-6.15,6.6-13.89,10.95-20.26,10.55-15.42,29.37,1.38,40.57,7,3.1,1.55,6.23,3,9.29,4.67,1.35.71,2.69,1.44,4,2.24a22.22,22.22,0,0,0,2.11,1.6c.19.06-.16.07,0-.1-.2.24.35-1.19.57-1,0,0-.86.12-1,.12a20.16,20.16,0,0,1-3.54-.37,80.74,80.74,0,0,1-8.28-1.91c-5.5-1.55-10.64-4.22-16-6.16s-12-4.06-17.68-2.06a11.68,11.68,0,0,0-6.29,5.3c-2,3.47-2.19,7.43-3.06,11.25a27.77,27.77,0,0,1-5.43,11.36A19.11,19.11,0,0,1,520.34,219a22.74,22.74,0,0,1-10.12,0c-3.52-.77-7-1.65-10.49-2.6-2.48-.67-5.69-2.19-8.26-1.29s-2.08,3.5-1.25,5.4a39.68,39.68,0,0,0,4.79,7.4c2,2.64,3.72,5.5,5.91,8,5.82,6.56,14.21,9.74,22.83,10.21,9.8.52,19.82.42,29.4-1.91,8.56-2.09,17.3-6,23.44-12.47,2.52-2.65,4.87-5.78,8.1-7.61,3.81-2.16,7.83-.66,11.64.74,4.39,1.62,9,3.62,13.81,3.12,3.37-.35,7.1-1.89,8.62-5.13,2.77-5.91-3-11.79-8.24-13.45l.66,2.51c2.49-2.15,5.16.59,6.52,2.7,1.53,2.36,3,5.7,1.91,8.51-2.64,6.81-12.72,6.5-18.68,6.53-3.51,0-7.12-.71-10.6-.17s-5.88,2.9-7.61,5.83c-2.09,3.53-4,7.09-6.9,10a38,38,0,0,1-10.18,6.83c-4.25,2.12-8.4,4.47-12.83,6.22a55.12,55.12,0,0,1-15.29,3.24,102,102,0,0,1-16.11.52A39.08,39.08,0,0,1,507,258.28a83.23,83.23,0,0,1-12.88-7.73,25.42,25.42,0,0,1-5.23-5.43c-2.06-2.65-4.07-5.34-6.27-7.86-1.68-1.93-3.62-4.23-6.06-5.2-5.77-2.3-6,8.33-6.4,11.61-.81,7.16-2,14.39,1.88,21.15,4.16,7.2,12.19,11.75,19.87,14.22,3.94,1.27,8.2,2.09,11.86,4.06,3.34,1.81,5.19,4.77,6.69,8.16,1.17,2.63,2,5.61,3.7,7.95s4.24,3.25,7,3.59,5.46.23,8.18.48c3,.28,6.08.65,9.08,1.21a31.51,31.51,0,0,1,3.58.84,8,8,0,0,0,.9.36c.23.05.11.11.13.08-.15.21-.3-1.83.05-1.56-.12-.09-2.9,1-3.19,1.08-1.67.44-3.37.78-5.07,1.1q-5.54,1-11.12,1.61c-3.06.32-5.67.48-8.48-1-3.37-1.84-6.16-4.61-8.9-7.26-2-2-4.16-4.46-6.79-5.65-3.17-1.43-7.18-1.36-10.57-1.86A38.87,38.87,0,0,1,475.49,288a72.17,72.17,0,0,1-11.74-8.37,68.37,68.37,0,0,1-9.67-9.8,42.52,42.52,0,0,1-9-27.5A50.5,50.5,0,0,1,448,227.53a1.51,1.51,0,0,0-.69-1.69c-2.39-1.75-5.29,0-7.18,1.67a39.19,39.19,0,0,0-7.27,9.13,51.28,51.28,0,0,0-5,9.77,25.38,25.38,0,0,0-1,4.56c-.41,2.55-.81,5.09-1.12,7.65-.61,5-1.06,10.48.37,15.42s5.28,8.77,9.16,11.76c7.47,5.77,16.78,9.55,25.69,12.51,4.32,1.43,18.95,5.72,16.69-3.78l-2.2,1.7c1.22.55,3.32,1.51,3.12,3.17-.17,1.5-2,2.52-3.2,3-4.11,1.75-8.87,2.05-13.28,2.12-8.55.12-17.72-.36-25.91-3-7.44-2.41-13.6-7.08-18.91-12.73-6.26-6.67-9.41-15-10.45-24-1.14-9.89-.34-19.87-1-29.79a1.52,1.52,0,0,0-1.5-1.5c-3.75.22-7.47,3-10.54,4.89a135.64,135.64,0,0,1-12.25,7.32c-5.83,2.82-12.09,5.24-18.61,5.62a52.63,52.63,0,0,1-18.38-2.14A49.63,49.63,0,0,1,328,240.5a69.77,69.77,0,0,1-6.77-6.55c-1.91-2-4.06-4-5.82-6.11-3.54-4.32-7.31-17.19-15.16-11.67-3.05,2.15-4.85,5.81-6.8,8.88-1.57,2.46-3.75,6.32-7.17,6l1.45,1.1s.67-.92.94-1.22c.64-.68,1.34-1.3,2-1.93a18.24,18.24,0,0,0,3.73-4c2.05-3.48,2.44-7.63,5.74-10.33,3.67-3,8.5-1.33,12.07,1,4,2.58,7.38,6.26,10.88,9.49,6.39,5.91,13.3,10.53,22,12.18,7.33,1.4,14.78-.84,21.57-3.55A74.9,74.9,0,0,0,378.27,228c2.71-1.68,5.54-3.61,7.38-6.26a1.51,1.51,0,0,0-.23-1.82c-3.94-3.55-9-4.24-14-5.56a18.39,18.39,0,0,1-6.43-2.8,48.13,48.13,0,0,1-4-3.71A61.12,61.12,0,0,0,355.4,203a9.23,9.23,0,0,0-4.17-2.2c-3.75-.67-7.83-1.46-11.63-1-1.89.24-1.92,3.24,0,3,3.6-.46,7.42.25,11,.88,1.75.32,3,1.56,4.34,2.68,1.71,1.39,3.31,2.91,4.88,4.45a22.59,22.59,0,0,0,9.42,6c4.76,1.48,10.23,1.73,14.09,5.21l-.23-1.82c-1.56,2.26-4.18,3.88-6.46,5.29a69.6,69.6,0,0,1-10.72,5.35,60.3,60.3,0,0,1-11.69,3.51,24.85,24.85,0,0,1-11.14-.6c-8.7-2.3-14.94-8.08-21.35-14.06-5.87-5.49-15.39-14-23.48-7.3a14.18,14.18,0,0,0-3.76,4.92c-1,2.09-1.52,4.68-2.89,6.56-2,2.73-7.32,5.05-6.73,9a1.51,1.51,0,0,0,1.44,1.1c6.77.68,10.06-8.59,13.31-12.93,1.37-1.82,3.76-4.35,6.15-2.55,1.7,1.29,2.78,3.58,3.81,5.39a51.89,51.89,0,0,0,3.22,5.37,72.13,72.13,0,0,0,5.54,5.93,90.51,90.51,0,0,0,6.74,6.69,51.68,51.68,0,0,0,15.42,9,50.51,50.51,0,0,0,36.23.21,87.74,87.74,0,0,0,15.39-8.06c2.33-1.48,4.66-3,7.07-4.33,1.55-.88,3.45-2.13,5.28-2.24l-1.5-1.5c.61,9.83-.16,19.73.94,29.54s4.45,19,11.35,26.39c5.93,6.32,12.94,11.36,21.32,13.84a67.28,67.28,0,0,0,13.88,2.29,102.89,102.89,0,0,0,15.3.35c4.6-.32,10.79-.88,14.2-4.39a5.3,5.3,0,0,0,1.62-4.85c-.53-2.24-2.53-3.63-4.51-4.53a1.52,1.52,0,0,0-2.2,1.69c.6,2.52-2,2.39-3.92,2.24a38.78,38.78,0,0,1-8.94-2.11c-7.7-2.54-15.55-5.76-22.32-10.25-3.87-2.55-7.83-5.9-9.9-10.15-1.91-3.9-1.62-8.83-1.29-13a108.37,108.37,0,0,1,1.8-12.93,27.77,27.77,0,0,1,3.17-7.49,52.36,52.36,0,0,1,6.67-9.81,15.07,15.07,0,0,1,3.52-3.15c.93-.54,1.52-.71,2.19-.22l-.69-1.7C441.76,236.42,441,247,444,256.87c2.89,9.57,9,17.35,16.44,23.88s15.37,12.12,25.19,13.91c4,.73,8.35.66,12.18,1.93,2.69.9,4.88,3.76,6.85,5.66,2.82,2.72,5.76,5.54,9.24,7.39a15,15,0,0,0,9,1.45c3.78-.36,7.55-.9,11.29-1.55,3.25-.56,6.73-1.07,9.77-2.42,1.91-.85,2.46-2.92.43-4.05-2.21-1.24-5.13-1.51-7.58-1.88-3-.47-6.1-.83-9.16-1.06-2.85-.21-5.92.16-8.64-.86-2.43-.92-3.37-3.34-4.29-5.59-1.45-3.55-2.82-7.27-5.46-10.14-2.48-2.69-5.88-4.08-9.29-5.18-4.28-1.39-8.72-2.39-12.8-4.33a33.83,33.83,0,0,1-10.38-7.77,18.61,18.61,0,0,1-4.53-13.38c.12-3,.57-6,.9-9a46.05,46.05,0,0,1,1.77-8.89c.13-.42.17-.25.11-.26a4.64,4.64,0,0,1,.76.29,11.67,11.67,0,0,1,2.87,2.37,86.51,86.51,0,0,1,6.61,7.93,41.47,41.47,0,0,0,5.07,6.14,65.89,65.89,0,0,0,11.92,7.79,45.83,45.83,0,0,0,14,5.25,69.88,69.88,0,0,0,16.35.48c5.34-.35,10.86-.68,16-2.09a72.53,72.53,0,0,0,14-5.85c4.08-2.1,8.34-4,12-6.77a32.59,32.59,0,0,0,7.74-8.48c2-3.07,3.49-7.84,7.27-9.13,3.14-1.08,6.94-.13,10.18-.08,6.74.11,16.05.24,20.81-5.45a9.66,9.66,0,0,0,1.9-9.14,16,16,0,0,0-5.39-8.47,6.09,6.09,0,0,0-8.07.21,1.52,1.52,0,0,0,.66,2.51c2.87.9,5.64,3,6.5,6,.91,3.17-1.37,5.37-4.25,6.24-9,2.75-17.05-6.69-26-4.22-3.48,1-6.2,3.56-8.61,6.13-2.76,2.94-5.32,5.83-8.77,8a59.59,59.59,0,0,1-27.25,8.55,126.9,126.9,0,0,1-15,.2,38.88,38.88,0,0,1-13.3-2.37,26.87,26.87,0,0,1-10.35-7.43c-2.09-2.43-3.85-5.25-5.75-7.84-1.53-2.08-3.67-4.52-4.33-7.09-.06-.23-.06-.77-.13-.6s-.09,0,.26,0a16.08,16.08,0,0,1,4.26.88c3.36,1,6.76,1.82,10.16,2.62a30.35,30.35,0,0,0,8.5,1.24A28.78,28.78,0,0,0,529,218.86c3.63-2.2,6.44-5.93,8.43-9.63A37.41,37.41,0,0,0,541,197.3c.52-3.17,1.41-6.59,4-8.77,4.36-3.75,11.28-1.81,16.13-.25,5.74,1.86,11.13,4.72,16.88,6.54,2.44.77,5,1.39,7.46,1.92a25,25,0,0,0,7.53.9c2.2-.24,3.4-2.13,1.87-4s-4-2.93-6-4c-5.47-2.95-11.27-5.33-16.48-8.73-7-4.55-15-9.6-23.53-10-8.18-.42-13.74,5-17.14,11.95-1.69,3.46-3.16,7-5,10.42-1.72,3.21-3.76,6.62-6.81,8.74-2.31,1.6-4.84,1.75-7.58,1.71a23.92,23.92,0,0,1-9.68-1.79,6,6,0,0,1-2.81-2.36c-.1-.18-.28-.76-.45-.85.12.06.13.49.05.7-.41,1.07-.87.64-.51.74a13.72,13.72,0,0,0,3.28-.42,54.88,54.88,0,0,0,6.84-1.27c4-1.06,8-3.15,10.15-6.85,2.25-3.9,2.37-8.78,2.37-13.16,0-2.22-.07-4.44,0-6.67a12.19,12.19,0,0,1,.86-5.07c1.14-2.34,3.92-2.33,6.19-2.32a87.2,87.2,0,0,1,12.93.69,63.5,63.5,0,0,1,14,4.26c2,.82,13.61,6,13.59,1,0-2.54-3.74-4.65-5.53-5.84a62.57,62.57,0,0,0-9.76-5.37,73.34,73.34,0,0,0-14.19-4,78.74,78.74,0,0,0-15-2c-4.48,0-9,.94-12.44,4-2.89,2.62-4.29,6.36-5.29,10-.95,3.5-1.48,7.43-3.43,10.56a11.38,11.38,0,0,1-5.78,4.55c-5.51,2-11.9,1-17.24-1.06-5.11-2-10.52-5.7-12.52-11.05-1.31-3.48-.46-6.41,1.32-9.56,1.87-3.32,4-6.91,2.94-10.87s-5.24-6.13-6.18-10c-.62-2.6.72-5.21,1.56-7.6a68.79,68.79,0,0,1,3.29-7.7c2.38-4.82,5.08-9.5,7-14.52,2-5.19,2.82-10.71,4.13-16.08,2.65-10.87,5-21.78,3.3-33C484,52.12,480.35,43,474.41,36.47a33.13,33.13,0,0,0-24-10.51A41.86,41.86,0,0,0,426,32.78a40.13,40.13,0,0,0-14.28,18c-4,9.7-4,20.29-2.63,30.54a113.39,113.39,0,0,0,3.22,15.9c1.53,5.38,3.59,10.55,5.31,15.86a71.92,71.92,0,0,1,2.65,14.56,66.56,66.56,0,0,1,.59,13.6c-.14,1.44,2.2,2.09,2.79.75l.12-.26a1.5,1.5,0,0,0-2.59-1.51,49.82,49.82,0,0,0-3.7,6,13.27,13.27,0,0,0-1,6,15.65,15.65,0,0,0,2.15,7c1.28,2.36,2.73,4.58,3,7.33.83,10.23-7.68,17.27-16.51,20.39a26,26,0,0,1-15.3.9A31.22,31.22,0,0,1,377.35,181a57.71,57.71,0,0,1-9.91-11.52,24.27,24.27,0,0,0-9.93-8.43,32.5,32.5,0,0,0-12.08-3.32c-3.55-.21-7,1-10.42,1.77-1.76.42-4.92,1.51-6.31-.17a7.85,7.85,0,0,1-1.23-4c-.21-1.85-.17-3.71-.21-5.56a45.33,45.33,0,0,0-.31-4.94c-.16-1.19-.33-2.74-1.27-3.61-3.21-3-4.94,4.12-5.17,5.93a49.39,49.39,0,0,0-.1,13.08c.59,3.92,3.52,6.25,7.28,7.06,8.23,1.79,17.64-.38,23.93,6.49,3.53,3.84,5.58,8.75,9,12.65,3.06,3.49,7.31,5.71,10.62,9a11.71,11.71,0,0,1,3.55,5.4l1.84-1.85c-4.94-.74-9.33-3.61-13.63-6s-8.49-4.42-13.45-4.69c-5.38-.31-11.44.39-16.07,3.34-4.16,2.65-7.12,6.92-11.57,9.16-5.7,2.86-12.07.45-18.09,1.24-1.1.14-2.22,1.65-1.06,2.56,5,4,10.62,5.81,17,4.86a39,39,0,0,0,9.62-2.91c3.46-1.49,6.83-3.15,10.58-3.76C341.9,202.42,341.09,199.53,339.2,199.84Z" style="fill:#010101"/><ellipse cx="427" cy="152.66" rx="7.41" ry="6.74" style="fill:#fff;stroke:#010101;stroke-miterlimit:10"/><ellipse cx="461.56" cy="152.66" rx="7.41" ry="6.74" style="fill:#fff;stroke:#010101;stroke-miterlimit:10"/><rect x="22.47" y="313.95" width="759.22" height="21.42" style="fill:#f38f1c;stroke:#010101;stroke-miterlimit:10"/></svg>